<svg width="30" height="30" viewBox="0 0 30 30" fill="none" xmlns="http://www.w3.org/2000/svg">
<g id="Camada_1" clip-path="url(#clip0_2403_725)">
<path id="Vector" d="M26.4903 17.3482C27.6275 15.976 28.4701 14.6284 29.051 13.2154C29.7055 11.639 30.0245 9.98094 30 8.29839C29.9918 7.62047 29.9018 6.95072 29.73 6.2973C29.5664 5.66839 29.321 5.06398 29.0101 4.48407C28.4129 3.37326 27.5539 2.39314 26.523 1.64171C25.5004 0.898448 24.3142 0.375715 23.0952 0.147019C21.7862 -0.0980125 20.4772 -0.0326708 19.201 0.351212C17.2784 0.931119 16.1167 2.15628 14.9795 3.51212L12.378 0.588075C12.0344 0.220528 11.5517 0 11.0445 0H1.77529C0.793564 0 0 0.792268 0 1.77239V28.2358C0 29.2077 0.793564 30.0082 1.77529 30.0082H8.41014C9.38369 30.0082 10.1854 29.2159 10.1854 28.2358V23.6945C11.0363 24.4296 11.9035 25.1402 12.7543 25.8345C12.9425 25.9897 13.1388 26.1448 13.327 26.3C13.8015 26.6839 14.3987 26.8963 15.0041 26.8963C15.6177 26.8963 16.2149 26.6839 16.6812 26.2919L16.943 26.0795C17.7857 25.3852 18.5792 24.74 19.3891 24.0539C19.5528 23.9151 19.7082 23.7844 19.8718 23.6455C22.1544 21.7261 24.5105 19.7332 26.4903 17.3482ZM18.2193 21.6934C18.0556 21.8323 17.9002 21.963 17.7366 22.1018C16.943 22.7716 16.1576 23.4168 15.3232 24.1029L15.0614 24.3234C15.0614 24.3234 14.9714 24.3561 14.9386 24.3234C14.7505 24.1683 14.5541 24.0131 14.366 23.8579C13.2697 22.9676 12.2389 22.1263 11.2326 21.2197C10.7663 20.8032 10.2672 20.3539 9.77638 19.9047C9.74366 19.872 9.71094 19.8475 9.67821 19.823C9.58822 19.7577 9.49005 19.7005 9.38369 19.6597C9.26098 19.6107 9.1219 19.578 8.98282 19.5698C8.98282 19.5698 8.92555 19.5698 8.90101 19.5698C8.72103 19.5698 8.54922 19.6107 8.39378 19.676C8.23834 19.7495 8.09108 19.8475 7.96837 19.9864C7.84565 20.1171 7.76384 20.2723 7.70657 20.4274C7.67385 20.5173 7.65749 20.6071 7.64112 20.7051C7.64112 20.7542 7.63294 20.8032 7.64112 20.8522V27.4598H2.5525V2.54833H10.6927L13.8097 6.05227C14.1205 6.39532 14.5623 6.59134 15.0205 6.58317C15.4868 6.57501 15.9204 6.36265 16.2149 6.01144C16.3212 5.88075 16.4276 5.75824 16.534 5.62755C17.6875 4.23087 18.5138 3.21808 19.9291 2.78519C21.6553 2.26246 23.5042 2.59733 25.0095 3.69181C26.5312 4.80261 27.423 6.49333 27.4475 8.3229C27.4802 10.8876 26.5312 13.3052 24.5269 15.7065C22.6861 17.92 20.42 19.8312 18.2193 21.6853V21.6934Z" fill="url(#paint0_linear_2403_725)"/>
<path id="Vector_2" d="M28.7156 18.655C28.012 18.655 27.4393 19.2268 27.4393 19.9292V27.4517H22.3752V26.4062C22.3752 25.7038 21.8026 25.132 21.099 25.132C20.3954 25.132 19.8228 25.7038 19.8228 26.4062V28.2358C19.8228 29.2077 20.6163 30.0082 21.598 30.0082H28.2247C29.1983 30.0082 30 29.2159 30 28.2358V19.9292C30 19.2268 29.4273 18.655 28.7238 18.655H28.7156Z" fill="url(#paint1_linear_2403_725)"/>
</g>
<defs>
<linearGradient id="paint0_linear_2403_725" x1="-23.4388" y1="53.3188" x2="38.2007" y2="-20.9921" gradientUnits="userSpaceOnUse">
<stop stop-color="#153F3D"/>
<stop offset="0.22" stop-color="#136A4E"/>
<stop offset="0.76" stop-color="#10D479"/>
<stop offset="1" stop-color="#0FFF8A"/>
</linearGradient>
<linearGradient id="paint1_linear_2403_725" x1="1.50533" y1="58.2276" x2="45.5261" y2="0.0450632" gradientUnits="userSpaceOnUse">
<stop stop-color="#153F3D"/>
<stop offset="0.22" stop-color="#136A4E"/>
<stop offset="0.76" stop-color="#10D479"/>
<stop offset="1" stop-color="#0FFF8A"/>
</linearGradient>
<clipPath id="clip0_2403_725">
<rect width="30" height="30" fill="white"/>
</clipPath>
</defs>
</svg>
