<svg width="195" height="58" viewBox="0 0 195 58" fill="none" xmlns="http://www.w3.org/2000/svg">
<g id="Camada_1" clip-path="url(#clip0_1_6)">
<path id="Vector" d="M46.9988 23.9728C46.9988 27.0881 45.806 30.0175 43.6333 32.2183L23.4597 52.704L14.0905 43.1922L18.3321 38.8861L23.4597 44.0917L29.5127 37.9465L24.3901 32.7459L28.6317 28.4397L33.7543 33.6403L39.3966 27.9122C40.436 26.857 41.0052 25.4601 41.0052 23.9728C41.0052 22.4855 40.436 21.0836 39.3966 20.0334C37.2585 17.8628 33.7741 17.8628 31.636 20.0334L19.6091 32.2485C17.4412 34.4493 14.5558 35.6653 11.4871 35.6653C8.41854 35.6653 5.53801 34.4543 3.36524 32.2485C-1.11393 27.7011 -1.11393 20.3048 3.36524 15.7574C7.84442 11.2101 15.1299 11.2101 19.6091 15.7574L15.3674 20.0636C13.2293 17.8929 9.74497 17.8929 7.60685 20.0636C5.46872 22.2343 5.46872 25.7716 7.60685 27.9423C8.64126 28.9975 10.0221 29.5753 11.4871 29.5753C12.9522 29.5753 14.333 28.9975 15.3674 27.9423L27.3944 15.7273C31.8736 11.1799 39.159 11.1799 43.6382 15.7273C45.806 17.9281 47.0038 20.8575 47.0038 23.9728H46.9988Z" fill="#0FFF90"/>
<g id="Vector_2">
<path d="M67.8063 23.8321C67.7024 23.4552 67.5737 23.1236 67.4302 22.8422C67.2817 22.5608 67.0639 22.2996 66.7669 22.0534C66.4749 21.8071 66.2176 21.6011 66.0047 21.4353C65.787 21.2695 65.4702 21.1137 65.0446 20.963C64.6189 20.8123 64.2972 20.7017 64.0745 20.6213C63.8468 20.5409 63.4855 20.4505 62.9856 20.345C62.4857 20.2394 62.1393 20.1741 61.9463 20.149C61.7582 20.1239 61.4117 20.0636 60.9069 19.9782C60.4218 19.9078 60.021 19.8375 59.6992 19.7671C59.3775 19.6968 59.0212 19.5963 58.6252 19.4656C58.2293 19.335 57.9125 19.1843 57.6799 19.0184C57.4473 18.8526 57.2493 18.6315 57.081 18.3602C56.9177 18.0889 56.8336 17.7773 56.8336 17.4256C56.8336 16.6719 57.1602 16.074 57.8086 15.6368C58.457 15.1997 59.4023 14.9786 60.6446 14.9786C62.5649 14.9786 64.411 15.4509 66.1928 16.4006L67.4103 14.0038C65.3019 12.9185 63.0995 12.3708 60.798 12.3708C58.6203 12.3708 56.8979 12.818 55.6259 13.7124C54.3589 14.6068 53.7204 15.8981 53.7204 17.5814C53.7204 18.2145 53.8144 18.7823 54.0075 19.2898C54.1955 19.7973 54.4826 20.2244 54.8637 20.566C55.2448 20.9077 55.6259 21.2042 56.0169 21.4454C56.4079 21.6916 56.888 21.8926 57.4671 22.0534C58.0462 22.2091 58.5312 22.3297 58.9172 22.4101C59.3082 22.4905 59.7834 22.5709 60.3575 22.6613C60.9465 22.7468 61.3969 22.8221 61.7186 22.8875C62.0403 22.9477 62.4263 23.0432 62.8866 23.1789C63.342 23.3095 63.6884 23.4552 63.926 23.616C64.1586 23.7718 64.3665 23.9929 64.5496 24.2743C64.7327 24.5557 64.8218 24.8823 64.8218 25.2491C64.8218 26.0731 64.4655 26.7163 63.7577 27.1836C63.05 27.6509 62.1046 27.882 60.9316 27.882C58.3233 27.882 56.0912 27.1534 54.2401 25.6963L52.9978 28.1182C53.9134 28.8216 55.0369 29.3995 56.3683 29.8567C57.6997 30.3139 59.1152 30.5401 60.6198 30.5401C62.847 30.5401 64.6288 30.0728 65.9602 29.1432C67.2916 28.2136 67.9548 26.8519 67.9548 25.0631C67.9548 24.626 67.9003 24.214 67.8014 23.8371L67.8063 23.8321Z" fill="white"/>
<path d="M80.5608 19.2647C79.4225 17.7572 77.9277 17.0035 76.0767 17.0035C74.2256 17.0035 72.7854 17.6467 71.5926 18.923C70.3998 20.2043 69.8009 21.8272 69.8009 23.7919C69.8009 25.7566 70.3948 27.3745 71.5777 28.6457C72.7606 29.917 74.2504 30.5551 76.0519 30.5551C77.8535 30.5551 79.4373 29.8014 80.5608 28.289V30.2637H83.3325V17.2849H80.5608V19.2647ZM79.4076 26.7012C78.6553 27.5001 77.7248 27.9021 76.6211 27.9021C75.5174 27.9021 74.5968 27.5051 73.8742 26.7163C73.1318 25.9425 72.7606 24.9727 72.7606 23.7969C72.7606 22.6211 73.1318 21.6162 73.8742 20.8374C74.6166 20.0586 75.5422 19.6666 76.6459 19.6666C77.7496 19.6666 78.6751 20.0636 79.4175 20.8525C80.1599 21.6413 80.5311 22.6061 80.5311 23.7467C80.5311 24.8873 80.155 25.9123 79.4027 26.7062L79.4076 26.7012Z" fill="white"/>
<path d="M92.3304 12.3507L91.3207 15.5765H94.226L95.7009 12.3507H92.3304ZM95.9335 17.2899V24.1085C95.9335 25.1938 95.6069 26.1033 94.9486 26.8218C94.2903 27.5403 93.4985 27.9021 92.563 27.9021C91.7167 27.9021 91.0188 27.6006 90.4744 26.9926C89.93 26.3846 89.6577 25.6008 89.6577 24.636V17.2899H86.6782V24.8722C86.6782 26.6107 87.1385 27.9875 88.0541 29.0025C88.9698 30.0225 90.1824 30.53 91.687 30.53C93.5331 30.53 94.9882 29.8115 96.0424 28.3694V30.2637H98.8933V17.2849H95.9385L95.9335 17.2899Z" fill="white"/>
<path d="M112.217 12.3507V19.1591C111.079 17.7572 109.609 17.0538 107.807 17.0538C106.005 17.0538 104.55 17.6969 103.372 18.9732C102.18 20.2545 101.581 21.8574 101.581 23.7919C101.581 25.7264 102.17 27.3343 103.343 28.6206C104.516 29.912 105.976 30.5551 107.723 30.5551C109.604 30.5551 111.118 29.8366 112.261 28.3945V30.2637H115.137V12.3507H112.207H112.217ZM111.168 26.7364C110.415 27.5252 109.48 27.9222 108.356 27.9222C107.233 27.9222 106.362 27.5303 105.634 26.7364C104.907 25.9475 104.545 24.9627 104.545 23.7869C104.545 22.6111 104.907 21.6564 105.634 20.8776C106.357 20.0987 107.277 19.7068 108.381 19.7068C109.485 19.7068 110.415 20.0987 111.168 20.8776C111.92 21.6564 112.296 22.6262 112.296 23.7869C112.296 24.9476 111.92 25.9475 111.168 26.7364Z" fill="white"/>
<path d="M131.247 23.4502C131.247 21.571 130.629 20.0334 129.396 18.8325C128.159 17.6316 126.585 17.0287 124.665 17.0287C122.744 17.0287 121.042 17.6618 119.765 18.923C118.488 20.1842 117.844 21.8122 117.844 23.7919C117.844 25.7716 118.473 27.3946 119.735 28.6608C120.997 29.922 122.64 30.5551 124.66 30.5551C126.041 30.5551 127.268 30.2537 128.342 29.6457C129.411 29.0377 130.163 28.2387 130.599 27.2388L128.263 26.1837C127.936 26.7967 127.456 27.2841 126.823 27.6458C126.189 28.0076 125.476 28.1835 124.684 28.1835C123.615 28.1835 122.715 27.8619 121.987 27.2087C121.259 26.5605 120.829 25.7113 120.69 24.6561H131.193C131.227 24.2341 131.247 23.8321 131.247 23.4452V23.4502ZM120.72 22.6865C120.893 21.7016 121.339 20.8977 122.056 20.2646C122.774 19.6315 123.625 19.3149 124.61 19.3149C125.595 19.3149 126.461 19.6264 127.164 20.2495C127.862 20.8726 128.283 21.6866 128.421 22.6814H120.72V22.6865Z" fill="white"/>
<path d="M57.3037 50.0509V45.1267H66.3512V42.5189H57.3037V37.7555H66.663V35.0974H54.349V52.704H66.9501V50.0459H57.3087L57.3037 50.0509Z" fill="white"/>
<path d="M89.0391 40.906C88.1036 39.9664 86.8762 39.4991 85.3567 39.4991C84.4213 39.4991 83.5601 39.69 82.7633 40.0769C81.9664 40.4638 81.3131 40.9964 80.7934 41.6848C79.9619 40.2277 78.6256 39.4991 76.7745 39.4991C75.943 39.4991 75.166 39.68 74.4384 40.0367C73.7158 40.3985 73.117 40.8859 72.6517 41.4989V39.7352H69.8009V52.714H72.7804V45.8201C72.7804 44.6996 73.0774 43.8002 73.6762 43.137C74.2702 42.4687 75.0274 42.137 75.9431 42.137C76.7745 42.137 77.4229 42.4285 77.903 43.0063C78.3781 43.5841 78.6157 44.358 78.6157 45.3227V52.719H81.6249V45.7699C81.6249 44.6645 81.912 43.7851 82.4911 43.1269C83.0701 42.4687 83.8076 42.1421 84.7084 42.1421C85.5201 42.1421 86.1783 42.4134 86.6931 42.9561C87.2029 43.4987 87.4602 44.2273 87.4602 45.1418V52.7241H90.4397V44.5891C90.4397 43.0817 89.9745 41.8557 89.0391 40.916V40.906Z" fill="white"/>
<path d="M105.525 41.4336C104.347 40.1422 102.887 39.4991 101.145 39.4991C99.2793 39.4991 97.7747 40.2176 96.6363 41.6597V39.7352H93.7311V58H96.6858V50.9202C97.7896 52.307 99.2793 53.0004 101.145 53.0004C102.892 53.0004 104.352 52.3573 105.525 51.076C106.703 49.7947 107.287 48.1918 107.287 46.2623C107.287 44.3328 106.698 42.7199 105.525 41.4336ZM103.259 49.2118C102.526 50.0007 101.615 50.3976 100.522 50.3976C99.4278 50.3976 98.4627 50.0057 97.7104 49.2118C96.958 48.4229 96.5819 47.4381 96.5819 46.2623C96.5819 45.0865 96.958 44.1067 97.7104 43.3279C98.4627 42.5491 99.3931 42.1571 100.497 42.1571C101.601 42.1571 102.521 42.5541 103.259 43.343C103.991 44.1318 104.362 45.1066 104.362 46.2673C104.362 47.428 103.996 48.428 103.259 49.2168V49.2118Z" fill="white"/>
<path d="M116.647 39.474C114.934 39.474 113.672 40.1473 112.86 41.4989V39.7352H110.01V52.714H112.94V46.0814C112.94 44.9408 113.251 44.0263 113.87 43.343C114.494 42.6596 115.33 42.3179 116.384 42.3179C117.023 42.3179 117.636 42.4234 118.225 42.6345L118.25 39.7151C117.731 39.5594 117.196 39.479 116.642 39.479L116.647 39.474Z" fill="white"/>
<path d="M132.722 45.8955C132.722 44.0163 132.104 42.4787 130.871 41.2778C129.634 40.0769 128.06 39.474 126.14 39.474C124.219 39.474 122.517 40.1071 121.24 41.3683C119.963 42.6295 119.319 44.2575 119.319 46.2372C119.319 48.2169 119.953 49.8399 121.21 51.1061C122.472 52.3673 124.115 53.0004 126.135 53.0004C127.515 53.0004 128.743 52.6989 129.817 52.091C130.886 51.483 131.638 50.684 132.074 49.6841L129.738 48.6289C129.411 49.242 128.931 49.7294 128.297 50.0911C127.664 50.4529 126.951 50.6288 126.159 50.6288C125.085 50.6288 124.189 50.3072 123.462 49.654C122.734 49.0058 122.304 48.1516 122.165 47.1014H132.668C132.702 46.6794 132.717 46.2774 132.717 45.8905L132.722 45.8955ZM122.195 45.1318C122.368 44.1469 122.814 43.343 123.531 42.7099C124.249 42.0767 125.1 41.7602 126.085 41.7602C127.07 41.7602 127.941 42.0717 128.639 42.6948C129.337 43.3178 129.757 44.1318 129.896 45.1267H122.195V45.1318Z" fill="white"/>
<path d="M147.966 45.8955C147.966 44.0163 147.348 42.4787 146.115 41.2778C144.878 40.0769 143.304 39.474 141.384 39.474C139.463 39.474 137.761 40.1071 136.484 41.3683C135.207 42.6295 134.563 44.2575 134.563 46.2372C134.563 48.2169 135.192 49.8399 136.454 51.1061C137.716 52.3673 139.359 53.0004 141.379 53.0004C142.759 53.0004 143.987 52.6989 145.061 52.091C146.13 51.483 146.882 50.684 147.318 49.6841L144.982 48.6289C144.655 49.242 144.175 49.7294 143.541 50.0911C142.908 50.4529 142.195 50.6288 141.403 50.6288C140.329 50.6288 139.433 50.3072 138.706 49.654C137.978 49.0058 137.548 48.1516 137.409 47.1014H147.912C147.946 46.6794 147.966 46.2774 147.966 45.8905V45.8955ZM137.439 45.1318C137.612 44.1469 138.058 43.343 138.775 42.7099C139.493 42.0767 140.344 41.7602 141.329 41.7602C142.314 41.7602 143.18 42.0717 143.883 42.6948C144.581 43.3178 145.002 44.1318 145.14 45.1267H137.439V45.1318Z" fill="white"/>
<path d="M161.409 40.9713C160.448 39.9915 159.216 39.4991 157.716 39.4991C155.92 39.4991 154.509 40.2025 153.49 41.6044V39.7352H150.639V52.714H153.618V46.0312C153.618 44.9107 153.935 43.9811 154.564 43.2425C155.197 42.5038 155.984 42.137 156.934 42.137C157.781 42.137 158.484 42.4435 159.038 43.0566C159.592 43.6696 159.869 44.4534 159.869 45.3981V52.714H162.849V44.7398C162.849 43.2123 162.369 41.9612 161.409 40.9763V40.9713Z" fill="white"/>
<path d="M175.97 34.183V41.6044C174.826 40.2025 173.361 39.4991 171.56 39.4991C169.758 39.4991 168.303 40.1422 167.125 41.4185C165.932 42.6998 165.334 44.3027 165.334 46.2372C165.334 48.1717 165.922 49.7796 167.095 51.0659C168.273 52.3573 169.733 53.0004 171.476 53.0004C173.361 53.0004 174.871 52.2819 176.014 50.8398V52.709H178.895V34.1779H175.965L175.97 34.183ZM174.92 49.1867C174.168 49.9756 173.228 50.3725 172.109 50.3725C170.991 50.3725 170.115 49.9806 169.387 49.1867C168.659 48.3978 168.298 47.413 168.298 46.2372C168.298 45.0614 168.659 44.1117 169.387 43.3279C170.115 42.5491 171.03 42.1571 172.134 42.1571C173.238 42.1571 174.168 42.5491 174.92 43.3279C175.673 44.1117 176.049 45.0765 176.049 46.2372C176.049 47.3979 175.673 48.3978 174.92 49.1867Z" fill="white"/>
<path d="M195 45.8955C195 44.0163 194.381 42.4787 193.144 41.2778C191.907 40.0769 190.333 39.474 188.412 39.474C186.492 39.474 184.789 40.1071 183.513 41.3683C182.236 42.6295 181.592 44.2575 181.592 46.2372C181.592 48.2169 182.226 49.8399 183.488 51.1061C184.75 52.3673 186.393 53.0004 188.412 53.0004C189.798 53.0004 191.021 52.6989 192.095 52.091C193.164 51.483 193.916 50.684 194.352 49.6841L192.02 48.6289C191.694 49.242 191.214 49.7294 190.58 50.0911C189.947 50.4529 189.234 50.6288 188.442 50.6288C187.373 50.6288 186.472 50.3072 185.745 49.654C185.017 49.0058 184.587 48.1516 184.448 47.1014H194.951C194.985 46.6794 195.005 46.2774 195.005 45.8905L195 45.8955ZM184.473 45.1318C184.646 44.1469 185.091 43.343 185.809 42.7099C186.527 42.0767 187.378 41.7602 188.363 41.7602C189.348 41.7602 190.214 42.0717 190.917 42.6948C191.615 43.3178 192.035 44.1318 192.174 45.1267H184.473V45.1318Z" fill="white"/>
</g>
</g>
<defs>
<clipPath id="clip0_1_6">
<rect width="195" height="58" fill="white"/>
</clipPath>
</defs>
</svg>
